<svg xmlns="http://www.w3.org/2000/svg" version="1.1" xmlns:xlink="http://www.w3.org/1999/xlink"
    xmlns:svgjs="http://svgjs.com/svgjs" width="100" height="100" x="0" y="0" viewBox="0 0 512 512"
    style="enable-background:new 0 0 512 512;" xml:space="preserve" class="">
    <path
        d="m366 86h-220c-33.084 0-60 26.916-60 60v220c0 33.084 26.916 60 60 60h220c33.084 0 60-26.916 60-60v-220c0-33.084-26.916-60-60-60zm40 280c0 22.056-17.944 40-40 40h-220c-22.056 0-40-17.944-40-40v-220c0-22.056 17.944-40 40-40h220c22.056 0 40 17.944 40 40z"
        fill="#ffff;" data-original="#000000" class="" />
</svg>
