<svg xmlns="http://www.w3.org/2000/svg" version="1.1" xmlns:xlink="http://www.w3.org/1999/xlink" width="512"
    height="512" x="0" y="0" viewBox="0 0 48 48" style="enable-background:new 0 0 512 512" xml:space="preserve"
    class="">
    <g>
        <g id="27-approved,-check,-square,-success,-tick" fill="none" fill-rule="evenodd">
            <path id="Shape"
                d="m37 6c2.6887547 0 5 2.16763914 5 5v26c0 2.6887547-2.164482 5-5 5h-26c-2.6887547 0-5-2.1751558-5-5v-26c0-2.6887547 2.15050562-5 5-5zm-3.636039 11.636039c-.3905243-.3905243-1.0236892-.3905243-1.4142135 0l-10.5817475 10.580961-3.6366901-3.8990453c-.4103086-.4512016-1.0405325-.3969722-1.4133552-.0492646-.4038913.3766832-.4259478 1.0094639-.0492646 1.4133552l4.3431457 4.6568543c.436393.4685751 1.069019.3944591 1.4384167.0250614l11.3137085-11.3137085c.4206836-.4240865.360484-1.0537296 0-1.4142135z"
                fill="#2a09ff" fill-rule="nonzero" data-original="#000000" class=""></path>
        </g>
    </g>
</svg>
